<svg width="240" height="175" viewBox="0 0 240 175" fill="none" xmlns="http://www.w3.org/2000/svg">
<path d="M45.5245 48.4854L55.5612 54.7589L38.2305 76.8417C34.0186 81.2905 28.6514 77.7406 31.6013 72.3635L45.5245 48.4854Z" fill="#A39D0B"/>
<path d="M91.9578 66.5349L103.497 69.8271L93.1771 98.711C90.4029 104.79 84.1964 103.091 85.4841 96.5162L91.9578 66.5349Z" fill="#A39D0B"/>
<path d="M139.45 70.7637L150.994 67.4883L157.192 96.6612C157.983 103.114 151.811 104.934 149.496 98.8448L139.45 70.7637Z" fill="#A39D0B"/>
<path d="M186.674 56.0042L195.606 47.9908L213.514 70.9467C216.956 76.2816 212.21 80.627 207.559 76.289L186.674 56.0042Z" fill="#A39D0B"/>
<path d="M4.33761 0.76666C17.6571 18.3983 36.155 36.3093 58.1039 46.1353C76.6784 54.4506 97.7478 59.9117 120 59.9117C142.252 59.9117 164.365 54.4506 182.94 46.1353C204.889 36.3093 222.343 18.3983 235.662 0.76666C236.904 -0.810275 239.313 0.192258 238.561 2.4368C222.358 43.4073 174.902 72.6835 120 72.6835C65.0984 72.6835 17.6424 43.4073 1.43917 2.4368C0.687308 0.192258 3.09643 -0.810275 4.33761 0.76666Z" fill="#A39D0B"/>
<path d="M61.1768 126.081L57.75 126.263C57.7357 125.59 57.6318 124.935 57.4385 124.298C57.2451 123.66 56.9551 123.094 56.5684 122.6C56.1888 122.099 55.7161 121.698 55.1504 121.397C54.5918 121.089 53.9401 120.935 53.1953 120.935C52.5436 120.935 51.9635 121.043 51.4551 121.258C50.9466 121.465 50.4954 121.748 50.1016 122.106C49.7148 122.464 49.3818 122.887 49.1025 123.374C48.8304 123.854 48.6084 124.366 48.4365 124.91C48.2646 125.447 48.1393 126.006 48.0605 126.586C47.9818 127.159 47.9424 127.717 47.9424 128.261C47.9424 128.834 47.9746 129.418 48.0391 130.012C48.1107 130.6 48.2253 131.173 48.3828 131.731C48.5404 132.283 48.748 132.805 49.0059 133.3C49.2708 133.787 49.5967 134.213 49.9834 134.578C50.3773 134.943 50.8356 135.233 51.3584 135.448C51.8883 135.656 52.5007 135.76 53.1953 135.76C53.9401 135.76 54.5846 135.627 55.1289 135.362C55.6803 135.097 56.1387 134.739 56.5039 134.288C56.8691 133.837 57.1484 133.31 57.3418 132.709C57.5352 132.107 57.6497 131.47 57.6855 130.797L61.0479 130.969C60.7757 131.864 60.3783 132.673 59.8555 133.396C59.3398 134.12 58.7347 134.735 58.04 135.244C57.3525 135.752 56.5863 136.143 55.7412 136.415C54.9033 136.687 54.026 136.823 53.1094 136.823C51.8418 136.823 50.7031 136.608 49.6934 136.178C48.6908 135.756 47.835 135.165 47.126 134.406C46.4242 133.647 45.8835 132.745 45.5039 131.699C45.1315 130.653 44.9453 129.508 44.9453 128.261C44.9453 127.066 45.1423 125.955 45.5361 124.931C45.9372 123.907 46.4958 123.023 47.2119 122.278C47.9352 121.526 48.7982 120.939 49.8008 120.516C50.8034 120.094 51.9062 119.883 53.1094 119.883C54.069 119.883 54.9857 120.026 55.8594 120.312C56.7402 120.592 57.5352 121 58.2441 121.537C58.9603 122.067 59.5726 122.715 60.0811 123.481C60.5895 124.247 60.9548 125.114 61.1768 126.081ZM73.584 126.124L72.9395 136.071L71.0488 136.243L70.9414 133.826C70.7767 134.227 70.5726 134.596 70.3291 134.932C70.0856 135.269 69.8027 135.559 69.4805 135.802C69.1654 136.046 68.8109 136.236 68.417 136.372C68.0231 136.508 67.597 136.576 67.1387 136.576C66.4225 136.576 65.7887 136.433 65.2373 136.146C64.693 135.867 64.2347 135.477 63.8623 134.975C63.4971 134.474 63.2214 133.88 63.0352 133.192C62.849 132.497 62.7559 131.742 62.7559 130.926C62.7559 130.045 62.8203 129.278 62.9492 128.627C63.0781 127.968 63.2249 127.413 63.3896 126.962C63.5758 126.439 63.7907 125.991 64.0342 125.619L67.1064 125.887C66.7555 126.31 66.444 126.815 66.1719 127.402C65.9355 127.903 65.7207 128.526 65.5273 129.271C65.334 130.016 65.2373 130.875 65.2373 131.849C65.2373 132.437 65.3053 132.941 65.4414 133.364C65.5775 133.787 65.7708 134.137 66.0215 134.417C66.2721 134.689 66.5729 134.889 66.9238 135.018C67.2819 135.147 67.6829 135.212 68.127 135.212C68.5065 135.212 68.8431 135.108 69.1367 134.9C69.4303 134.692 69.6882 134.424 69.9102 134.094C70.1322 133.765 70.3184 133.393 70.4688 132.977C70.6263 132.562 70.7552 132.15 70.8555 131.742L70.6299 125.952L73.584 126.124ZM79.6318 121.064L79.5029 125.469H82.0488V126.371H79.4814L79.1914 136.114L77.2148 136.297L77.0107 126.371H74.3682V125.469H76.9893L76.9248 121.752L79.6318 121.064ZM88.3115 133.031C87.7458 133.031 87.1836 132.959 86.625 132.816C86.0736 132.666 85.5723 132.429 85.1211 132.107C85.1283 132.386 85.1462 132.673 85.1748 132.967C85.2035 133.26 85.25 133.547 85.3145 133.826C85.3861 134.098 85.4756 134.356 85.583 134.599C85.6976 134.843 85.8408 135.058 86.0127 135.244C86.1917 135.423 86.403 135.566 86.6465 135.674C86.8971 135.781 87.1943 135.835 87.5381 135.835C87.8604 135.835 88.1611 135.777 88.4404 135.663C88.7197 135.541 88.9632 135.38 89.1709 135.179C89.3857 134.979 89.5612 134.743 89.6973 134.47C89.8333 134.198 89.9264 133.905 89.9766 133.59L92.6191 134.18C92.4115 134.624 92.1178 135 91.7383 135.308C91.3659 135.616 90.9505 135.863 90.4922 136.05C90.0339 136.243 89.554 136.383 89.0527 136.469C88.5586 136.554 88.0824 136.597 87.624 136.597C86.8005 136.597 86.0664 136.476 85.4219 136.232C84.7773 135.989 84.2331 135.638 83.7891 135.179C83.3522 134.721 83.0156 134.166 82.7793 133.514C82.5501 132.856 82.4355 132.118 82.4355 131.302C82.4355 130.507 82.5716 129.758 82.8438 129.056C83.1159 128.347 83.4954 127.732 83.9824 127.209C84.4694 126.686 85.0531 126.274 85.7334 125.973C86.4209 125.665 87.1764 125.511 88 125.511C88.6016 125.511 89.1995 125.587 89.7939 125.737C90.3883 125.88 90.9219 126.109 91.3945 126.425C91.8672 126.733 92.2467 127.13 92.5332 127.617C92.8268 128.104 92.9736 128.691 92.9736 129.379C92.9736 130.052 92.8376 130.621 92.5654 131.087C92.3005 131.545 91.9495 131.921 91.5127 132.215C91.0758 132.501 90.5781 132.709 90.0195 132.838C89.4609 132.967 88.8916 133.031 88.3115 133.031ZM87.8496 126.306C87.5202 126.306 87.2266 126.374 86.9688 126.51C86.7181 126.639 86.4925 126.818 86.292 127.048C86.0986 127.277 85.9339 127.538 85.7979 127.832C85.6618 128.125 85.5472 128.433 85.4541 128.756C85.361 129.078 85.2894 129.404 85.2393 129.733C85.1891 130.063 85.1569 130.371 85.1426 130.657C85.4147 131.122 85.7764 131.506 86.2275 131.806C86.6787 132.1 87.2015 132.247 87.7959 132.247C88.1755 132.247 88.5156 132.161 88.8164 131.989C89.1172 131.81 89.3714 131.581 89.5791 131.302C89.7868 131.022 89.9443 130.711 90.0518 130.367C90.1663 130.023 90.2236 129.679 90.2236 129.336C90.2236 128.992 90.1735 128.641 90.0732 128.283C89.973 127.918 89.8226 127.592 89.6221 127.305C89.4287 127.012 89.1816 126.772 88.8809 126.586C88.5872 126.399 88.2435 126.306 87.8496 126.306ZM112.707 129.207C112.485 129.178 112.209 129.153 111.88 129.132C111.55 129.11 111.192 129.092 110.806 129.078C110.426 129.056 110.029 129.042 109.613 129.035C109.205 129.028 108.808 129.021 108.421 129.013C108.041 129.006 107.683 129.003 107.347 129.003C107.017 128.996 106.742 128.992 106.52 128.992C106.212 128.992 105.907 128.992 105.606 128.992C105.306 128.992 105.001 128.999 104.693 129.013C104.679 130.009 104.675 130.994 104.683 131.968C104.69 132.941 104.693 133.93 104.693 134.932C104.693 135.104 104.693 135.276 104.693 135.448C104.693 135.613 104.701 135.785 104.715 135.964L102.072 136.007L101.814 120.602L114.179 120.688L114.136 123.417C113.835 123.231 113.445 123.059 112.965 122.901C112.492 122.744 111.973 122.604 111.407 122.482C110.841 122.353 110.247 122.242 109.624 122.149C109.008 122.056 108.407 121.977 107.819 121.913C107.232 121.841 106.681 121.784 106.165 121.741C105.649 121.698 105.209 121.666 104.844 121.644C104.801 122.704 104.769 123.76 104.747 124.813C104.726 125.859 104.708 126.912 104.693 127.971H104.736C105.059 127.971 105.435 127.968 105.864 127.961C106.301 127.954 106.763 127.943 107.25 127.928C107.737 127.914 108.235 127.9 108.743 127.885C109.259 127.864 109.76 127.843 110.247 127.821C110.734 127.792 111.192 127.767 111.622 127.746C112.052 127.717 112.428 127.685 112.75 127.649L112.707 129.207ZM126.554 131.033C126.554 131.899 126.382 132.669 126.038 133.343C125.701 134.009 125.25 134.574 124.685 135.04C124.126 135.498 123.478 135.845 122.74 136.082C122.003 136.325 121.236 136.447 120.441 136.447C119.654 136.447 118.927 136.311 118.261 136.039C117.602 135.767 117.033 135.391 116.553 134.911C116.073 134.424 115.697 133.851 115.425 133.192C115.16 132.526 115.027 131.799 115.027 131.011C115.027 130.238 115.185 129.515 115.5 128.842C115.822 128.168 116.248 127.581 116.778 127.08C117.315 126.571 117.931 126.174 118.626 125.887C119.321 125.594 120.048 125.447 120.807 125.447C121.63 125.447 122.393 125.583 123.095 125.855C123.797 126.127 124.402 126.51 124.91 127.005C125.426 127.499 125.827 128.09 126.113 128.777C126.407 129.457 126.554 130.209 126.554 131.033ZM123.847 130.926C123.847 130.603 123.825 130.27 123.782 129.927C123.739 129.576 123.668 129.235 123.567 128.906C123.474 128.569 123.349 128.254 123.191 127.961C123.041 127.66 122.851 127.399 122.622 127.177C122.393 126.947 122.124 126.768 121.816 126.639C121.508 126.503 121.158 126.435 120.764 126.435C120.162 126.435 119.664 126.582 119.271 126.876C118.877 127.162 118.565 127.531 118.336 127.982C118.114 128.426 117.956 128.917 117.863 129.454C117.777 129.991 117.734 130.503 117.734 130.99C117.734 131.312 117.752 131.649 117.788 132C117.831 132.344 117.899 132.684 117.992 133.02C118.085 133.357 118.207 133.679 118.357 133.987C118.508 134.288 118.694 134.556 118.916 134.793C119.145 135.022 119.41 135.205 119.711 135.341C120.019 135.477 120.37 135.545 120.764 135.545C121.165 135.545 121.519 135.477 121.827 135.341C122.135 135.197 122.4 135.011 122.622 134.782C122.851 134.546 123.045 134.274 123.202 133.966C123.36 133.65 123.485 133.325 123.578 132.988C123.671 132.644 123.739 132.297 123.782 131.946C123.825 131.588 123.847 131.248 123.847 130.926ZM131.495 125.759L131.388 127.714C131.581 127.363 131.807 127.037 132.064 126.736C132.329 126.428 132.623 126.17 132.945 125.963C133.275 125.748 133.629 125.59 134.009 125.49C134.396 125.39 134.804 125.368 135.233 125.426C135.914 125.526 136.49 125.733 136.963 126.049C137.436 126.364 137.815 126.765 138.102 127.252C138.395 127.739 138.606 128.304 138.735 128.949C138.864 129.594 138.929 130.295 138.929 131.054C138.929 131.477 138.893 131.921 138.821 132.386C138.75 132.852 138.653 133.317 138.531 133.783C138.41 134.241 138.27 134.692 138.112 135.136C137.962 135.58 137.808 135.996 137.65 136.383L134.997 136.114C135.011 136.107 135.058 136.021 135.137 135.856C135.215 135.691 135.309 135.469 135.416 135.19C135.523 134.911 135.634 134.585 135.749 134.213C135.871 133.833 135.982 133.425 136.082 132.988C136.189 132.551 136.275 132.093 136.34 131.613C136.411 131.126 136.447 130.639 136.447 130.152C136.447 129.615 136.401 129.139 136.308 128.723C136.215 128.308 136.068 127.957 135.867 127.671C135.674 127.384 135.423 127.166 135.115 127.015C134.807 126.865 134.435 126.79 133.998 126.79C133.618 126.79 133.282 126.894 132.988 127.101C132.695 127.302 132.437 127.563 132.215 127.885C131.993 128.208 131.803 128.573 131.646 128.981C131.488 129.382 131.355 129.787 131.248 130.195L130.969 135.985L128.971 136.157L128.552 125.995L131.495 125.759ZM149.209 129.185C149.209 128.913 149.127 128.652 148.962 128.401C148.804 128.143 148.6 127.918 148.35 127.724C148.099 127.531 147.82 127.377 147.512 127.262C147.204 127.148 146.907 127.091 146.62 127.091C146.033 127.091 145.528 127.219 145.105 127.477C144.683 127.735 144.336 128.072 144.063 128.487C143.799 128.895 143.602 129.357 143.473 129.873C143.344 130.381 143.279 130.893 143.279 131.409C143.279 131.874 143.326 132.354 143.419 132.848C143.519 133.335 143.68 133.783 143.902 134.191C144.132 134.599 144.432 134.936 144.805 135.201C145.177 135.459 145.643 135.588 146.201 135.588C146.638 135.588 147.018 135.491 147.34 135.298C147.669 135.104 147.949 134.857 148.178 134.556C148.414 134.248 148.607 133.905 148.758 133.525C148.908 133.138 149.023 132.755 149.102 132.376C149.123 131.846 149.145 131.312 149.166 130.775C149.195 130.231 149.209 129.701 149.209 129.185ZM151.744 120.914L151.325 136.49L149.349 136.426L149.263 134.513C149.119 134.857 148.93 135.165 148.693 135.437C148.464 135.702 148.196 135.924 147.888 136.103C147.587 136.289 147.254 136.429 146.889 136.522C146.531 136.615 146.155 136.662 145.761 136.662C144.994 136.662 144.296 136.533 143.666 136.275C143.036 136.017 142.495 135.659 142.044 135.201C141.6 134.743 141.253 134.195 141.002 133.557C140.758 132.92 140.637 132.225 140.637 131.473C140.637 130.657 140.769 129.909 141.034 129.228C141.306 128.541 141.682 127.954 142.162 127.467C142.649 126.972 143.233 126.596 143.913 126.339C144.593 126.074 145.342 125.952 146.158 125.973C146.402 125.981 146.649 126.006 146.899 126.049C147.157 126.084 147.408 126.142 147.651 126.22C147.895 126.299 148.128 126.399 148.35 126.521C148.579 126.643 148.786 126.79 148.973 126.962L148.747 120.763L151.744 120.914Z" fill="#227DA4"/>
<path d="M44.9668 165.757C45.0742 164.839 45.2207 163.803 45.4062 162.651C45.6016 161.499 45.8262 160.293 46.0801 159.033C46.3438 157.763 46.627 156.474 46.9297 155.166C47.2422 153.847 47.5693 152.568 47.9111 151.328C48.2627 150.078 48.624 148.896 48.9951 147.783C49.3662 146.67 49.7422 145.678 50.123 144.809L53.5068 144.604C53.7998 145.171 54.1123 145.83 54.4443 146.582C54.7861 147.334 55.1377 148.144 55.499 149.013C55.8701 149.873 56.2461 150.776 56.627 151.723C57.0078 152.671 57.3838 153.633 57.7549 154.609C58.126 155.576 58.4873 156.538 58.8389 157.495C59.1904 158.452 59.5225 159.375 59.835 160.263C60.0303 159.248 60.2646 158.115 60.5381 156.865C60.8115 155.605 61.1191 154.302 61.4609 152.954C61.8125 151.596 62.1934 150.224 62.6035 148.838C63.0137 147.441 63.4531 146.098 63.9219 144.809L67.9062 144.604C68.4922 146.157 69.1221 147.973 69.7959 150.053C70.3721 151.841 71.0264 154.018 71.7588 156.587C72.501 159.155 73.2676 162.099 74.0586 165.42L68.9609 166.474C68.9512 166.064 68.917 165.547 68.8584 164.922C68.8096 164.287 68.7363 163.584 68.6387 162.812C68.5508 162.041 68.4434 161.216 68.3164 160.337C68.1895 159.448 68.0479 158.54 67.8916 157.612C67.7451 156.684 67.5791 155.752 67.3936 154.814C67.2178 153.867 67.0273 152.954 66.8223 152.075C66.627 151.186 66.417 150.346 66.1924 149.555C65.9775 148.755 65.7578 148.032 65.5332 147.387C65.1914 148.335 64.8691 149.311 64.5664 150.317C64.2637 151.313 63.9805 152.309 63.7168 153.305C63.4629 154.302 63.2236 155.278 62.999 156.235C62.7842 157.192 62.5889 158.095 62.4131 158.945C62.0029 160.947 61.6465 162.905 61.3438 164.819L57.8574 165.273C57.8574 165.283 57.7744 165.039 57.6084 164.541C57.4521 164.033 57.2275 163.354 56.9346 162.505C56.6416 161.645 56.2949 160.644 55.8945 159.502C55.4941 158.359 55.0596 157.153 54.5908 155.884C54.1221 154.614 53.624 153.31 53.0967 151.972C52.5791 150.635 52.0566 149.345 51.5293 148.105C51.1191 149.394 50.7676 150.786 50.4746 152.28C50.1816 153.774 49.9326 155.317 49.7275 156.909C49.5322 158.501 49.3711 160.112 49.2441 161.743C49.1172 163.364 49.0195 164.941 48.9512 166.474L44.9668 165.757ZM85.5705 161.933C84.799 161.933 84.0324 161.836 83.2707 161.64C82.5187 161.435 81.8352 161.113 81.2199 160.674C81.2297 161.054 81.2541 161.445 81.2932 161.845C81.3322 162.246 81.3957 162.636 81.4836 163.017C81.5812 163.388 81.7033 163.74 81.8498 164.072C82.0061 164.404 82.2014 164.697 82.4357 164.951C82.6799 165.195 82.968 165.39 83.3 165.537C83.6418 165.683 84.0471 165.757 84.5158 165.757C84.9553 165.757 85.3654 165.678 85.7463 165.522C86.1271 165.356 86.4592 165.136 86.7424 164.863C87.0354 164.59 87.2746 164.267 87.4602 163.896C87.6457 163.525 87.7727 163.125 87.841 162.695L91.4445 163.501C91.1613 164.106 90.7609 164.619 90.2434 165.039C89.7355 165.459 89.1691 165.796 88.5441 166.05C87.9191 166.313 87.2648 166.504 86.5812 166.621C85.9074 166.738 85.258 166.797 84.633 166.797C83.51 166.797 82.509 166.631 81.6301 166.299C80.7512 165.967 80.009 165.488 79.4035 164.863C78.8078 164.238 78.3488 163.481 78.0266 162.593C77.7141 161.694 77.5578 160.688 77.5578 159.575C77.5578 158.491 77.7434 157.47 78.1145 156.513C78.4855 155.547 79.0031 154.707 79.6672 153.994C80.3312 153.281 81.1271 152.719 82.0549 152.309C82.9924 151.889 84.0227 151.679 85.1457 151.679C85.966 151.679 86.7814 151.782 87.592 151.987C88.4025 152.182 89.1301 152.495 89.7746 152.925C90.4191 153.344 90.9367 153.886 91.3273 154.551C91.7277 155.215 91.9279 156.015 91.9279 156.953C91.9279 157.871 91.7424 158.647 91.3713 159.282C91.01 159.907 90.5314 160.42 89.9357 160.82C89.34 161.211 88.6613 161.494 87.8996 161.67C87.1379 161.845 86.3615 161.933 85.5705 161.933ZM84.9406 152.763C84.4914 152.763 84.091 152.856 83.7395 153.042C83.3977 153.218 83.09 153.462 82.8166 153.774C82.5529 154.087 82.3283 154.443 82.1428 154.844C81.9572 155.244 81.801 155.664 81.674 156.103C81.5471 156.543 81.4494 156.987 81.3811 157.436C81.3127 157.885 81.2687 158.305 81.2492 158.696C81.6203 159.331 82.1135 159.853 82.7287 160.263C83.3439 160.664 84.0568 160.864 84.8674 160.864C85.385 160.864 85.8488 160.747 86.259 160.512C86.6691 160.268 87.0158 159.956 87.299 159.575C87.5822 159.194 87.7971 158.769 87.9436 158.301C88.0998 157.832 88.1779 157.363 88.1779 156.894C88.1779 156.426 88.1096 155.947 87.9729 155.459C87.8361 154.961 87.6311 154.516 87.3576 154.126C87.0939 153.725 86.757 153.398 86.3469 153.144C85.9465 152.89 85.4777 152.763 84.9406 152.763ZM99.7777 154.8C100.022 154.428 100.305 154.077 100.627 153.745C100.95 153.403 101.311 153.11 101.711 152.866C102.121 152.612 102.566 152.412 103.044 152.265C103.533 152.119 104.055 152.046 104.612 152.046C105.334 152.046 105.94 152.202 106.428 152.514C106.916 152.817 107.312 153.218 107.615 153.716C108.23 153.139 108.928 152.676 109.709 152.324C110.491 151.972 111.291 151.797 112.112 151.797C112.707 151.797 113.235 151.904 113.694 152.119C114.162 152.324 114.568 152.607 114.91 152.969C115.261 153.32 115.554 153.73 115.788 154.199C116.023 154.668 116.208 155.161 116.345 155.678C116.492 156.196 116.594 156.723 116.653 157.26C116.721 157.788 116.755 158.296 116.755 158.784C116.755 159.331 116.716 159.966 116.638 160.688C116.57 161.401 116.467 162.129 116.33 162.871C116.194 163.613 116.028 164.326 115.832 165.01C115.647 165.683 115.437 166.25 115.203 166.709L111.204 166.343C111.575 165.63 111.907 164.858 112.2 164.028C112.454 163.315 112.683 162.5 112.888 161.582C113.093 160.654 113.196 159.673 113.196 158.637C113.196 157.993 113.157 157.387 113.079 156.821C113 156.255 112.854 155.766 112.639 155.356C112.434 154.936 112.146 154.604 111.775 154.36C111.413 154.116 110.945 153.994 110.369 153.994C109.958 153.994 109.568 154.082 109.197 154.258C108.835 154.424 108.484 154.643 108.142 154.917C108.298 155.385 108.406 155.874 108.464 156.382C108.533 156.88 108.567 157.373 108.567 157.861C108.567 158.359 108.542 158.969 108.494 159.692C108.445 160.415 108.376 161.157 108.288 161.919C108.21 162.671 108.118 163.388 108.01 164.072C107.912 164.756 107.81 165.302 107.703 165.713L103.704 165.42C103.967 164.707 104.202 163.93 104.407 163.091C104.582 162.368 104.744 161.528 104.89 160.571C105.046 159.614 105.124 158.589 105.124 157.495C105.124 157.153 105.08 156.787 104.993 156.396C104.914 155.996 104.778 155.63 104.582 155.298C104.397 154.956 104.148 154.673 103.835 154.448C103.533 154.223 103.162 154.111 102.722 154.111C102.439 154.111 102.165 154.194 101.902 154.36C101.638 154.516 101.384 154.726 101.14 154.99C100.896 155.254 100.662 155.561 100.437 155.913C100.222 156.255 100.022 156.616 99.8363 156.997L100.203 165.962L96.2914 166.343L97.0531 152.397L99.6898 152.602L99.7777 154.8ZM136.69 159.209C136.69 160.39 136.456 161.44 135.987 162.358C135.528 163.266 134.913 164.038 134.141 164.673C133.379 165.298 132.496 165.771 131.49 166.094C130.484 166.426 129.439 166.592 128.355 166.592C127.281 166.592 126.29 166.406 125.381 166.035C124.483 165.664 123.707 165.151 123.052 164.497C122.398 163.833 121.885 163.052 121.514 162.153C121.153 161.245 120.972 160.254 120.972 159.179C120.972 158.125 121.187 157.138 121.617 156.22C122.056 155.302 122.637 154.502 123.36 153.818C124.092 153.125 124.932 152.583 125.879 152.192C126.827 151.792 127.818 151.592 128.853 151.592C129.976 151.592 131.016 151.777 131.973 152.148C132.93 152.519 133.755 153.042 134.449 153.716C135.152 154.389 135.699 155.195 136.089 156.133C136.49 157.06 136.69 158.086 136.69 159.209ZM132.999 159.062C132.999 158.623 132.969 158.169 132.911 157.7C132.852 157.221 132.754 156.758 132.618 156.308C132.491 155.849 132.32 155.42 132.105 155.019C131.9 154.609 131.641 154.253 131.329 153.95C131.016 153.637 130.65 153.393 130.23 153.218C129.81 153.032 129.332 152.939 128.795 152.939C127.974 152.939 127.296 153.139 126.758 153.54C126.221 153.93 125.796 154.433 125.484 155.049C125.181 155.654 124.966 156.323 124.839 157.055C124.722 157.788 124.664 158.486 124.664 159.15C124.664 159.59 124.688 160.049 124.737 160.527C124.796 160.996 124.888 161.46 125.015 161.919C125.142 162.378 125.308 162.817 125.513 163.237C125.718 163.647 125.972 164.013 126.275 164.336C126.588 164.648 126.949 164.897 127.359 165.083C127.779 165.268 128.257 165.361 128.795 165.361C129.341 165.361 129.825 165.268 130.245 165.083C130.665 164.887 131.026 164.634 131.329 164.321C131.641 163.999 131.905 163.628 132.12 163.208C132.335 162.778 132.505 162.334 132.632 161.875C132.759 161.406 132.852 160.932 132.911 160.454C132.969 159.966 132.999 159.502 132.999 159.062ZM145.287 151.767L145.082 155.605C145.336 155.136 145.634 154.677 145.975 154.228C146.317 153.769 146.688 153.344 147.089 152.954C147.499 152.553 147.929 152.192 148.378 151.87C148.837 151.538 149.305 151.264 149.784 151.05V155.942C149.579 155.718 149.345 155.556 149.081 155.459C148.817 155.361 148.534 155.312 148.231 155.312C147.782 155.312 147.382 155.385 147.03 155.532C146.679 155.678 146.371 155.879 146.107 156.133C145.844 156.377 145.619 156.67 145.433 157.011C145.248 157.344 145.092 157.695 144.965 158.066L144.54 165.962L141.962 166.137L141.112 152.016L145.287 151.767ZM158.674 148.764C158.674 149.116 158.605 149.448 158.469 149.76C158.342 150.073 158.161 150.346 157.927 150.581C157.692 150.815 157.419 151.001 157.106 151.137C156.794 151.274 156.457 151.343 156.096 151.343C155.734 151.343 155.393 151.274 155.07 151.137C154.758 151.001 154.484 150.815 154.25 150.581C154.016 150.346 153.83 150.073 153.693 149.76C153.557 149.448 153.488 149.116 153.488 148.764C153.488 148.403 153.557 148.066 153.693 147.754C153.83 147.431 154.016 147.153 154.25 146.919C154.484 146.684 154.758 146.499 155.07 146.362C155.393 146.225 155.734 146.157 156.096 146.157C156.457 146.157 156.794 146.225 157.106 146.362C157.419 146.499 157.692 146.684 157.927 146.919C158.161 147.153 158.342 147.431 158.469 147.754C158.605 148.066 158.674 148.403 158.674 148.764ZM158.176 152.822L157.062 166.914L154.235 166.621L154.06 152.602L158.176 152.822ZM170.479 161.933C169.707 161.933 168.941 161.836 168.179 161.64C167.427 161.435 166.743 161.113 166.128 160.674C166.138 161.054 166.162 161.445 166.201 161.845C166.24 162.246 166.304 162.636 166.392 163.017C166.489 163.388 166.612 163.74 166.758 164.072C166.914 164.404 167.11 164.697 167.344 164.951C167.588 165.195 167.876 165.39 168.208 165.537C168.55 165.683 168.955 165.757 169.424 165.757C169.863 165.757 170.274 165.678 170.654 165.522C171.035 165.356 171.367 165.136 171.651 164.863C171.944 164.59 172.183 164.267 172.368 163.896C172.554 163.525 172.681 163.125 172.749 162.695L176.353 163.501C176.07 164.106 175.669 164.619 175.152 165.039C174.644 165.459 174.077 165.796 173.452 166.05C172.827 166.313 172.173 166.504 171.489 166.621C170.816 166.738 170.166 166.797 169.541 166.797C168.418 166.797 167.417 166.631 166.538 166.299C165.659 165.967 164.917 165.488 164.312 164.863C163.716 164.238 163.257 163.481 162.935 162.593C162.622 161.694 162.466 160.688 162.466 159.575C162.466 158.491 162.652 157.47 163.023 156.513C163.394 155.547 163.911 154.707 164.575 153.994C165.239 153.281 166.035 152.719 166.963 152.309C167.901 151.889 168.931 151.679 170.054 151.679C170.874 151.679 171.69 151.782 172.5 151.987C173.311 152.182 174.038 152.495 174.683 152.925C175.327 153.344 175.845 153.886 176.236 154.551C176.636 155.215 176.836 156.015 176.836 156.953C176.836 157.871 176.651 158.647 176.279 159.282C175.918 159.907 175.44 160.42 174.844 160.82C174.248 161.211 173.57 161.494 172.808 161.67C172.046 161.845 171.27 161.933 170.479 161.933ZM169.849 152.763C169.4 152.763 168.999 152.856 168.648 153.042C168.306 153.218 167.998 153.462 167.725 153.774C167.461 154.087 167.237 154.443 167.051 154.844C166.865 155.244 166.709 155.664 166.582 156.103C166.455 156.543 166.358 156.987 166.289 157.436C166.221 157.885 166.177 158.305 166.157 158.696C166.529 159.331 167.022 159.853 167.637 160.263C168.252 160.664 168.965 160.864 169.776 160.864C170.293 160.864 170.757 160.747 171.167 160.512C171.577 160.268 171.924 159.956 172.207 159.575C172.49 159.194 172.705 158.769 172.852 158.301C173.008 157.832 173.086 157.363 173.086 156.894C173.086 156.426 173.018 155.947 172.881 155.459C172.744 154.961 172.539 154.516 172.266 154.126C172.002 153.725 171.665 153.398 171.255 153.144C170.855 152.89 170.386 152.763 169.849 152.763ZM188.07 166.504C187.23 166.504 186.39 166.396 185.55 166.181C184.72 165.967 183.958 165.639 183.265 165.2C182.572 164.751 181.986 164.189 181.507 163.515C181.038 162.832 180.75 162.026 180.643 161.098L184.745 161.216C184.725 161.274 184.715 161.338 184.715 161.406C184.715 161.465 184.715 161.523 184.715 161.582C184.715 162.158 184.798 162.676 184.964 163.135C185.14 163.594 185.389 163.984 185.711 164.306C186.034 164.619 186.419 164.858 186.869 165.024C187.318 165.19 187.821 165.273 188.377 165.273C188.709 165.273 189.032 165.239 189.344 165.171C189.666 165.102 189.95 164.99 190.194 164.834C190.448 164.668 190.653 164.453 190.809 164.189C190.965 163.926 191.043 163.594 191.043 163.193C191.043 162.744 190.902 162.358 190.619 162.036C190.335 161.714 189.989 161.445 189.579 161.23C189.178 161.006 188.753 160.825 188.304 160.688C187.865 160.542 187.479 160.429 187.147 160.351C186.805 160.263 186.41 160.166 185.96 160.058C185.521 159.941 185.067 159.809 184.598 159.663C184.129 159.507 183.67 159.326 183.221 159.121C182.772 158.916 182.371 158.672 182.02 158.388C181.668 158.105 181.385 157.783 181.17 157.422C180.955 157.051 180.848 156.626 180.848 156.147C180.848 155.61 180.951 155.122 181.156 154.682C181.361 154.243 181.634 153.852 181.976 153.51C182.328 153.169 182.728 152.876 183.177 152.632C183.636 152.378 184.11 152.173 184.598 152.016C185.086 151.85 185.579 151.728 186.078 151.65C186.576 151.572 187.044 151.533 187.484 151.533C188.226 151.533 188.978 151.621 189.74 151.797C190.511 151.963 191.209 152.236 191.834 152.617C192.469 152.998 192.996 153.491 193.416 154.096C193.846 154.702 194.095 155.434 194.163 156.294L190.179 156.601V156.455C190.189 155.879 190.121 155.356 189.974 154.887C189.837 154.419 189.622 154.018 189.329 153.686C189.046 153.354 188.685 153.1 188.246 152.925C187.816 152.739 187.308 152.646 186.722 152.646C186.458 152.646 186.17 152.685 185.858 152.763C185.545 152.842 185.252 152.964 184.979 153.13C184.715 153.286 184.491 153.486 184.305 153.73C184.12 153.974 184.027 154.262 184.027 154.594C184.027 155.102 184.183 155.512 184.496 155.825C184.818 156.128 185.208 156.372 185.667 156.557C186.126 156.733 186.605 156.87 187.103 156.968C187.601 157.055 188.036 157.143 188.407 157.231C188.807 157.319 189.232 157.431 189.681 157.568C190.14 157.695 190.589 157.856 191.029 158.052C191.478 158.237 191.903 158.462 192.303 158.725C192.713 158.979 193.075 159.277 193.387 159.619C193.7 159.951 193.949 160.332 194.134 160.761C194.32 161.181 194.413 161.655 194.413 162.182C194.413 162.973 194.207 163.647 193.797 164.204C193.387 164.751 192.865 165.195 192.23 165.537C191.605 165.879 190.921 166.123 190.179 166.269C189.437 166.426 188.734 166.504 188.07 166.504Z" fill="#227DA4"/>
</svg>
