<svg width="58" height="64" viewBox="0 0 58 64" fill="none" xmlns="http://www.w3.org/2000/svg">
<path d="M10.8053 34.1008L13.2573 35.6335L9.02331 41.0284C7.99431 42.1153 6.68307 41.2481 7.40375 39.9344L10.8053 34.1008Z" fill="#A39D0B"/>
<path d="M22.1492 38.5103L24.9684 39.3146L22.447 46.3711C21.7693 47.8563 20.253 47.4411 20.5676 45.8349L22.1492 38.5103Z" fill="#A39D0B"/>
<path d="M33.7517 39.5439L36.5721 38.7438L38.0863 45.8709C38.2796 47.4473 36.7717 47.892 36.206 46.4043L33.7517 39.5439Z" fill="#A39D0B"/>
<path d="M45.2889 35.9377L47.4712 33.98L51.8461 39.5883C52.6871 40.8916 51.5276 41.9533 50.3913 40.8935L45.2889 35.9377Z" fill="#A39D0B"/>
<path d="M0.742915 22.4432C3.99696 26.7507 8.51612 31.1264 13.8784 33.527C18.4162 35.5585 23.5636 36.8927 29 36.8927C34.4364 36.8927 39.8387 35.5585 44.3766 33.527C49.7388 31.1264 54.003 26.7507 57.2571 22.4432C57.5603 22.0579 58.1489 22.3028 57.9652 22.8512C54.0066 32.8605 42.4128 40.0129 29 40.0129C15.5872 40.0129 3.99336 32.8605 0.0348082 22.8512C-0.148877 22.3028 0.439689 22.0579 0.742915 22.4432Z" fill="#A39D0B"/>
<path d="M14.6291 51.5646L13.792 51.6092C13.7885 51.4447 13.7631 51.2846 13.7158 51.1289C13.6686 50.9732 13.5977 50.835 13.5033 50.7143C13.4105 50.5918 13.2951 50.4938 13.1569 50.4203C13.0204 50.3451 12.8612 50.3075 12.6792 50.3075C12.52 50.3075 12.3783 50.3337 12.2541 50.3862C12.1298 50.437 12.0196 50.5061 11.9234 50.5935C11.8289 50.681 11.7476 50.7843 11.6793 50.9032C11.6128 51.0204 11.5586 51.1455 11.5166 51.2785C11.4746 51.4097 11.444 51.5462 11.4248 51.6879C11.4055 51.8279 11.3959 51.9644 11.3959 52.0973C11.3959 52.2373 11.4038 52.3799 11.4195 52.5251C11.437 52.6686 11.465 52.8085 11.5035 52.945C11.542 53.0797 11.5927 53.2074 11.6557 53.3282C11.7204 53.4471 11.8 53.5512 11.8945 53.6405C11.9907 53.7297 12.1027 53.8005 12.2304 53.853C12.3599 53.9038 12.5095 53.9291 12.6792 53.9291C12.8612 53.9291 13.0186 53.8968 13.1516 53.832C13.2863 53.7673 13.3983 53.6798 13.4875 53.5696C13.5768 53.4594 13.645 53.3308 13.6922 53.1838C13.7395 53.0369 13.7675 52.8811 13.7762 52.7167L14.5976 52.7587C14.5312 52.9774 14.4341 53.1751 14.3063 53.3518C14.1804 53.5285 14.0325 53.679 13.8628 53.8032C13.6949 53.9274 13.5076 54.0227 13.3012 54.0892C13.0965 54.1557 12.8822 54.189 12.6582 54.189C12.3485 54.189 12.0704 54.1365 11.8237 54.0315C11.5787 53.9283 11.3696 53.7839 11.1964 53.5985C11.025 53.413 10.8929 53.1926 10.8002 52.9371C10.7092 52.6817 10.6637 52.4017 10.6637 52.0973C10.6637 51.8051 10.7118 51.534 10.808 51.2838C10.906 51.0336 11.0425 50.8175 11.2174 50.6355C11.3941 50.4518 11.605 50.3084 11.8499 50.2051C12.0949 50.1019 12.3643 50.0503 12.6582 50.0503C12.8927 50.0503 13.1166 50.0853 13.3301 50.1553C13.5453 50.2235 13.7395 50.3232 13.9127 50.4545C14.0876 50.5839 14.2372 50.7423 14.3614 50.9295C14.4857 51.1167 14.5749 51.3284 14.6291 51.5646ZM17.6603 51.5751L17.5028 54.0052L17.0409 54.0472L17.0147 53.4568C16.9745 53.5547 16.9246 53.6448 16.8651 53.7271C16.8056 53.8093 16.7365 53.8802 16.6578 53.9396C16.5808 53.9991 16.4942 54.0455 16.398 54.0787C16.3017 54.112 16.1976 54.1286 16.0857 54.1286C15.9107 54.1286 15.7559 54.0936 15.6212 54.0236C15.4882 53.9554 15.3762 53.86 15.2852 53.7376C15.196 53.6151 15.1286 53.4699 15.0832 53.3019C15.0377 53.1322 15.0149 52.9476 15.0149 52.7482C15.0149 52.533 15.0307 52.3458 15.0622 52.1865C15.0936 52.0256 15.1295 51.89 15.1698 51.7798C15.2152 51.652 15.2677 51.5427 15.3272 51.4517L16.0778 51.5173C15.9921 51.6206 15.916 51.7439 15.8495 51.8874C15.7917 52.0098 15.7392 52.1621 15.692 52.344C15.6448 52.526 15.6212 52.7359 15.6212 52.9739C15.6212 53.1173 15.6378 53.2407 15.671 53.3439C15.7043 53.4471 15.7515 53.5329 15.8127 53.6011C15.874 53.6676 15.9474 53.7166 16.0332 53.7481C16.1207 53.7796 16.2186 53.7953 16.3271 53.7953C16.4198 53.7953 16.5021 53.7699 16.5738 53.7192C16.6455 53.6685 16.7085 53.6028 16.7628 53.5224C16.817 53.4419 16.8625 53.3509 16.8992 53.2494C16.9377 53.1479 16.9692 53.0473 16.9937 52.9476L16.9386 51.5331L17.6603 51.5751ZM19.1378 50.339L19.1063 51.415H19.7283V51.6354H19.1011L19.0302 54.0157L18.5473 54.0604L18.4975 51.6354H17.8519V51.415H18.4922L18.4765 50.5069L19.1378 50.339ZM21.2583 53.2625C21.1201 53.2625 20.9828 53.2451 20.8463 53.2101C20.7116 53.1733 20.5891 53.1156 20.4789 53.0369C20.4806 53.1051 20.485 53.1751 20.492 53.2468C20.499 53.3185 20.5104 53.3885 20.5261 53.4568C20.5436 53.5232 20.5655 53.5862 20.5917 53.6457C20.6197 53.7052 20.6547 53.7577 20.6967 53.8032C20.7405 53.8469 20.7921 53.8819 20.8516 53.9081C20.9128 53.9344 20.9854 53.9475 21.0694 53.9475C21.1481 53.9475 21.2216 53.9335 21.2898 53.9055C21.3581 53.8758 21.4175 53.8364 21.4683 53.7874C21.5208 53.7384 21.5636 53.6807 21.5969 53.6142C21.6301 53.5477 21.6529 53.476 21.6651 53.399L22.3107 53.5434C22.26 53.6518 22.1882 53.7437 22.0955 53.8189C22.0045 53.8941 21.9031 53.9545 21.7911 54C21.6791 54.0472 21.5619 54.0814 21.4394 54.1024C21.3187 54.1233 21.2023 54.1338 21.0904 54.1338C20.8892 54.1338 20.7098 54.1041 20.5524 54.0446C20.3949 53.9851 20.2619 53.8994 20.1535 53.7874C20.0467 53.6755 19.9645 53.5399 19.9068 53.3806C19.8508 53.2197 19.8228 53.0395 19.8228 52.84C19.8228 52.6458 19.856 52.463 19.9225 52.2915C19.989 52.1183 20.0817 51.9679 20.2007 51.8401C20.3197 51.7124 20.4623 51.6118 20.6285 51.5383C20.7964 51.4631 20.981 51.4255 21.1822 51.4255C21.3292 51.4255 21.4753 51.4438 21.6205 51.4806C21.7657 51.5156 21.8961 51.5716 22.0115 51.6486C22.127 51.7238 22.2197 51.8209 22.2897 51.9399C22.3614 52.0588 22.3973 52.2023 22.3973 52.3703C22.3973 52.5347 22.3641 52.6738 22.2976 52.7875C22.2329 52.8995 22.1471 52.9914 22.0404 53.0631C21.9337 53.1331 21.8121 53.1838 21.6756 53.2153C21.5391 53.2468 21.4 53.2625 21.2583 53.2625ZM21.1455 51.6197C21.065 51.6197 20.9933 51.6363 20.9303 51.6695C20.869 51.701 20.8139 51.7448 20.7649 51.8008C20.7177 51.8568 20.6775 51.9206 20.6442 51.9923C20.611 52.0641 20.583 52.1393 20.5602 52.218C20.5375 52.2968 20.52 52.3764 20.5078 52.4569C20.4955 52.5373 20.4876 52.6126 20.4841 52.6826C20.5506 52.7963 20.639 52.8899 20.7492 52.9634C20.8594 53.0351 20.9871 53.071 21.1324 53.071C21.2251 53.071 21.3082 53.05 21.3817 53.008C21.4552 52.9642 21.5173 52.9083 21.568 52.84C21.6187 52.7718 21.6572 52.6957 21.6835 52.6117C21.7115 52.5277 21.7255 52.4437 21.7255 52.3598C21.7255 52.2758 21.7132 52.19 21.6887 52.1026C21.6642 52.0133 21.6275 51.9337 21.5785 51.8637C21.5313 51.792 21.4709 51.7334 21.3974 51.6879C21.3257 51.6424 21.2417 51.6197 21.1455 51.6197ZM27.2183 52.3283C27.1641 52.3213 27.0967 52.3151 27.0162 52.3099C26.9358 52.3046 26.8483 52.3003 26.7538 52.2968C26.6611 52.2915 26.564 52.288 26.4625 52.2863C26.3628 52.2845 26.2657 52.2828 26.1712 52.281C26.0785 52.2793 25.991 52.2784 25.9087 52.2784C25.8283 52.2767 25.7609 52.2758 25.7067 52.2758C25.6314 52.2758 25.5571 52.2758 25.4836 52.2758C25.4101 52.2758 25.3358 52.2775 25.2605 52.281C25.257 52.5242 25.2561 52.7648 25.2579 53.0027C25.2596 53.2407 25.2605 53.4821 25.2605 53.7271C25.2605 53.7691 25.2605 53.811 25.2605 53.853C25.2605 53.8933 25.2623 53.9353 25.2658 53.979L24.6202 53.9895L24.5572 50.2261L27.5779 50.2471L27.5674 50.9137C27.4939 50.8682 27.3985 50.8262 27.2813 50.7878C27.1658 50.7493 27.039 50.7151 26.9008 50.6854C26.7625 50.6539 26.6173 50.6268 26.4651 50.604C26.3146 50.5813 26.1677 50.5621 26.0242 50.5463C25.8808 50.5288 25.746 50.5148 25.6201 50.5043C25.4941 50.4938 25.3865 50.4859 25.2973 50.4807C25.2868 50.7396 25.2789 50.9977 25.2736 51.2549C25.2684 51.5103 25.264 51.7675 25.2605 52.0265H25.271C25.3497 52.0265 25.4416 52.0256 25.5466 52.0238C25.6533 52.0221 25.7662 52.0195 25.8851 52.016C26.0041 52.0125 26.1257 52.009 26.2499 52.0055C26.3759 52.0002 26.4984 51.995 26.6173 51.9897C26.7363 51.9827 26.8483 51.9766 26.9532 51.9713C27.0582 51.9644 27.1501 51.9565 27.2288 51.9477L27.2183 52.3283ZM30.6011 52.7744C30.6011 52.9861 30.5592 53.1742 30.4752 53.3387C30.3929 53.5014 30.2827 53.6396 30.1445 53.7533C30.008 53.8653 29.8497 53.9501 29.6695 54.0079C29.4893 54.0674 29.3021 54.0971 29.1079 54.0971C28.9154 54.0971 28.7378 54.0639 28.5751 53.9974C28.4142 53.9309 28.2751 53.839 28.1578 53.7218C28.0406 53.6028 27.9488 53.4629 27.8823 53.3019C27.8175 53.1392 27.7852 52.9616 27.7852 52.7692C27.7852 52.5802 27.8237 52.4035 27.9007 52.239C27.9794 52.0746 28.0835 51.9311 28.213 51.8086C28.3442 51.6844 28.4946 51.5873 28.6643 51.5173C28.8341 51.4456 29.0116 51.4097 29.1971 51.4097C29.3983 51.4097 29.5846 51.443 29.7561 51.5095C29.9276 51.5759 30.0754 51.6695 30.1996 51.7903C30.3256 51.911 30.4236 52.0553 30.4935 52.2233C30.5653 52.3895 30.6011 52.5732 30.6011 52.7744ZM29.9398 52.7482C29.9398 52.6694 29.9346 52.5881 29.9241 52.5041C29.9136 52.4184 29.8961 52.3353 29.8716 52.2548C29.8488 52.1726 29.8182 52.0956 29.7797 52.0238C29.743 51.9504 29.6966 51.8865 29.6406 51.8323C29.5846 51.7763 29.519 51.7325 29.4438 51.701C29.3686 51.6678 29.2828 51.6512 29.1866 51.6512C29.0396 51.6512 28.918 51.687 28.8218 51.7588C28.7256 51.8288 28.6495 51.9189 28.5935 52.0291C28.5393 52.1376 28.5008 52.2574 28.478 52.3886C28.457 52.5198 28.4465 52.6449 28.4465 52.7639C28.4465 52.8426 28.4509 52.9249 28.4596 53.0106C28.4701 53.0946 28.4868 53.1777 28.5095 53.2599C28.5323 53.3422 28.562 53.4209 28.5987 53.4961C28.6355 53.5696 28.681 53.6352 28.7352 53.6929C28.7912 53.7489 28.8559 53.7935 28.9294 53.8268C29.0046 53.86 29.0904 53.8767 29.1866 53.8767C29.2846 53.8767 29.3712 53.86 29.4464 53.8268C29.5216 53.7918 29.5864 53.7463 29.6406 53.6903C29.6966 53.6326 29.7438 53.5661 29.7823 53.4909C29.8208 53.4139 29.8514 53.3343 29.8742 53.252C29.8969 53.1681 29.9136 53.0832 29.9241 52.9975C29.9346 52.91 29.9398 52.8269 29.9398 52.7482ZM31.8084 51.4858L31.7821 51.9635C31.8294 51.8777 31.8845 51.7981 31.9475 51.7247C32.0122 51.6494 32.0839 51.5864 32.1627 51.5357C32.2431 51.4832 32.3297 51.4447 32.4225 51.4202C32.5169 51.3957 32.6167 51.3905 32.7216 51.4045C32.8879 51.429 33.0287 51.4797 33.1442 51.5567C33.2596 51.6337 33.3524 51.7317 33.4224 51.8506C33.4941 51.9696 33.5457 52.1078 33.5772 52.2653C33.6087 52.4227 33.6244 52.5942 33.6244 52.7797C33.6244 52.8829 33.6157 52.9914 33.5982 53.1051C33.5807 53.2188 33.5571 53.3325 33.5273 53.4463C33.4976 53.5582 33.4635 53.6685 33.425 53.7769C33.3882 53.8854 33.3506 53.9869 33.3121 54.0814L32.6639 54.0157C32.6674 54.014 32.6788 53.993 32.698 53.9528C32.7173 53.9125 32.74 53.8583 32.7663 53.79C32.7925 53.7218 32.8196 53.6422 32.8476 53.5512C32.8774 53.4585 32.9045 53.3588 32.929 53.252C32.9552 53.1453 32.9762 53.0334 32.992 52.9161C33.0095 52.7972 33.0182 52.6782 33.0182 52.5592C33.0182 52.428 33.0068 52.3116 32.9841 52.2102C32.9613 52.1087 32.9255 52.023 32.8765 51.953C32.8292 51.883 32.768 51.8296 32.6928 51.7929C32.6175 51.7561 32.5266 51.7378 32.4198 51.7378C32.3271 51.7378 32.2449 51.7631 32.1732 51.8139C32.1014 51.8629 32.0384 51.9267 31.9842 52.0055C31.93 52.0842 31.8836 52.1734 31.8451 52.2732C31.8066 52.3711 31.7742 52.47 31.748 52.5697L31.6798 53.9843L31.1916 54.0262L31.0893 51.5436L31.8084 51.4858ZM36.136 52.323C36.136 52.2565 36.1159 52.1927 36.0756 52.1314C36.0371 52.0685 35.9873 52.0133 35.926 51.9661C35.8648 51.9189 35.7966 51.8812 35.7213 51.8533C35.6461 51.8253 35.5735 51.8113 35.5035 51.8113C35.36 51.8113 35.2367 51.8428 35.1335 51.9057C35.0302 51.9687 34.9454 52.051 34.8789 52.1524C34.8142 52.2522 34.766 52.365 34.7346 52.491C34.7031 52.6152 34.6873 52.7403 34.6873 52.8663C34.6873 52.98 34.6987 53.0972 34.7214 53.2179C34.7459 53.3369 34.7853 53.4463 34.8395 53.546C34.8955 53.6457 34.969 53.7279 35.06 53.7927C35.151 53.8557 35.2647 53.8872 35.4011 53.8872C35.5079 53.8872 35.6006 53.8635 35.6793 53.8163C35.7598 53.7691 35.828 53.7087 35.884 53.6352C35.9418 53.56 35.989 53.476 36.0258 53.3833C36.0625 53.2888 36.0905 53.1952 36.1097 53.1025C36.115 52.973 36.1202 52.8426 36.1255 52.7114C36.1325 52.5785 36.136 52.449 36.136 52.323ZM36.7553 50.3022L36.653 54.1076L36.1701 54.0919L36.1491 53.6247C36.1141 53.7087 36.0677 53.7839 36.01 53.8504C35.954 53.9151 35.8884 53.9694 35.8132 54.0131C35.7397 54.0586 35.6583 54.0927 35.5691 54.1155C35.4816 54.1382 35.3898 54.1496 35.2935 54.1496C35.1063 54.1496 34.9358 54.1181 34.7818 54.0551C34.6278 53.9921 34.4957 53.9046 34.3855 53.7927C34.277 53.6807 34.1922 53.5469 34.1309 53.3911C34.0715 53.2354 34.0417 53.0657 34.0417 52.882C34.0417 52.6826 34.0741 52.4997 34.1388 52.3335C34.2053 52.1656 34.2972 52.0221 34.4144 51.9031C34.5334 51.7824 34.6759 51.6905 34.8422 51.6276C35.0084 51.5628 35.1912 51.5331 35.3907 51.5383C35.4501 51.5401 35.5105 51.5462 35.5717 51.5567C35.6347 51.5654 35.696 51.5794 35.7554 51.5987C35.8149 51.6179 35.8718 51.6424 35.926 51.6722C35.982 51.7019 36.0327 51.7378 36.0782 51.7798L36.0231 50.2655L36.7553 50.3022Z" fill="#227DA4"/>
<path d="M10.6689 60.9284C10.6952 60.7042 10.731 60.4513 10.7763 60.1697C10.824 59.8882 10.8789 59.5936 10.9409 59.2858C11.0053 58.9756 11.0745 58.6607 11.1485 58.341C11.2248 58.0189 11.3048 57.7064 11.3883 57.4034C11.4741 57.098 11.5624 56.8093 11.6531 56.5374C11.7437 56.2654 11.8356 56.0232 11.9286 55.8109L12.7553 55.7608C12.8269 55.8991 12.9032 56.0602 12.9844 56.2439C13.0679 56.4276 13.1538 56.6256 13.242 56.838C13.3327 57.0479 13.4245 57.2686 13.5176 57.5C13.6106 57.7314 13.7025 57.9664 13.7931 58.205C13.8838 58.4412 13.9721 58.6762 14.058 58.91C14.1439 59.1438 14.225 59.3693 14.3013 59.5864C14.349 59.3383 14.4063 59.0615 14.4731 58.7562C14.5399 58.4484 14.6151 58.1299 14.6986 57.8006C14.7844 57.469 14.8775 57.1338 14.9777 56.795C15.0779 56.4538 15.1853 56.1258 15.2998 55.8109L16.2732 55.7608C16.4163 56.1401 16.5702 56.5839 16.7348 57.0921C16.8756 57.5287 17.0355 58.0607 17.2144 58.6882C17.3957 59.3156 17.583 60.0349 17.7762 60.8461L16.5309 61.1038C16.5285 61.0036 16.5201 60.8771 16.5058 60.7244C16.4939 60.5694 16.476 60.3976 16.4521 60.2091C16.4307 60.0206 16.4044 59.819 16.3734 59.6043C16.3424 59.3872 16.3078 59.1653 16.2696 58.9387C16.2338 58.712 16.1933 58.4842 16.1479 58.2551C16.105 58.0237 16.0585 57.8006 16.0084 57.5859C15.9607 57.3688 15.9094 57.1636 15.8545 56.9704C15.802 56.7747 15.7483 56.5982 15.6934 56.4407C15.6099 56.6721 15.5312 56.9107 15.4572 57.1565C15.3833 57.3998 15.3141 57.6432 15.2497 57.8865C15.1876 58.1299 15.1292 58.3685 15.0743 58.6023C15.0218 58.8361 14.9741 59.0568 14.9312 59.2643C14.831 59.7534 14.7439 60.2318 14.6699 60.6994L13.8182 60.8103C13.8182 60.8127 13.7979 60.7531 13.7574 60.6314C13.7192 60.5073 13.6643 60.3415 13.5927 60.134C13.5212 59.924 13.4365 59.6795 13.3387 59.4003C13.2408 59.1212 13.1347 58.8265 13.0201 58.5164C12.9056 58.2062 12.784 57.8877 12.6551 57.5609C12.5287 57.234 12.401 56.9191 12.2722 56.6161C12.172 56.931 12.0861 57.271 12.0145 57.636C11.943 58.001 11.8821 58.378 11.832 58.7669C11.7843 59.1558 11.7449 59.5494 11.7139 59.9479C11.6829 60.3439 11.659 60.7292 11.6423 61.1038L10.6689 60.9284ZM20.5887 59.9944C20.4002 59.9944 20.2129 59.9705 20.0268 59.9228C19.8431 59.8727 19.6761 59.794 19.5258 59.6866C19.5282 59.7797 19.5342 59.8751 19.5437 59.9729C19.5532 60.0707 19.5688 60.1662 19.5902 60.2592C19.6141 60.3499 19.6439 60.4358 19.6797 60.5169C19.7179 60.598 19.7656 60.6696 19.8228 60.7316C19.8825 60.7912 19.9529 60.839 20.034 60.8747C20.1175 60.9105 20.2165 60.9284 20.331 60.9284C20.4384 60.9284 20.5386 60.9093 20.6316 60.8712C20.7247 60.8306 20.8058 60.7769 20.875 60.7101C20.9466 60.6433 21.005 60.5646 21.0503 60.4739C21.0957 60.3833 21.1267 60.2855 21.1434 60.1805L22.0237 60.3773C21.9546 60.5252 21.8567 60.6505 21.7303 60.7531C21.6062 60.8557 21.4679 60.938 21.3152 61C21.1625 61.0644 21.0026 61.1109 20.8356 61.1396C20.671 61.1682 20.5123 61.1825 20.3596 61.1825C20.0853 61.1825 19.8407 61.142 19.626 61.0608C19.4113 60.9797 19.23 60.8628 19.082 60.7101C18.9365 60.5574 18.8244 60.3725 18.7456 60.1554C18.6693 59.9359 18.6311 59.6902 18.6311 59.4182C18.6311 59.1534 18.6765 58.9041 18.7671 58.6703C18.8578 58.4341 18.9842 58.2289 19.1465 58.0547C19.3087 57.8806 19.5031 57.7434 19.7298 57.6432C19.9588 57.5406 20.2105 57.4893 20.4849 57.4893C20.6853 57.4893 20.8845 57.5143 21.0825 57.5644C21.2806 57.6122 21.4583 57.6885 21.6158 57.7935C21.7732 57.8961 21.8997 58.0285 21.9951 58.1907C22.0929 58.3529 22.1418 58.5486 22.1418 58.7776C22.1418 59.0019 22.0965 59.1916 22.0059 59.3466C21.9176 59.4993 21.8007 59.6246 21.6551 59.7224C21.5096 59.8178 21.3438 59.887 21.1577 59.93C20.9716 59.9729 20.7819 59.9944 20.5887 59.9944ZM20.4348 57.7541C20.3251 57.7541 20.2272 57.7768 20.1413 57.8221C20.0578 57.8651 19.9827 57.9247 19.9159 58.001C19.8515 58.0774 19.7966 58.1645 19.7513 58.2623C19.7059 58.3601 19.6678 58.4627 19.6367 58.5701C19.6057 58.6774 19.5819 58.786 19.5652 58.8957C19.5485 59.0055 19.5377 59.1081 19.533 59.2035C19.6236 59.3586 19.7441 59.4862 19.8944 59.5864C20.0447 59.6842 20.2189 59.7331 20.4169 59.7331C20.5434 59.7331 20.6567 59.7045 20.7569 59.6472C20.8571 59.5876 20.9418 59.5113 21.011 59.4182C21.0802 59.3252 21.1326 59.2214 21.1684 59.1069C21.2066 58.9923 21.2257 58.8778 21.2257 58.7633C21.2257 58.6488 21.209 58.5319 21.1756 58.4126C21.1422 58.2909 21.0921 58.1824 21.0253 58.0869C20.9609 57.9891 20.8786 57.9092 20.7784 57.8472C20.6805 57.7851 20.566 57.7541 20.4348 57.7541ZM24.0596 58.2516C24.1192 58.1609 24.1884 58.075 24.2672 57.9939C24.3459 57.9104 24.4342 57.8388 24.532 57.7792C24.6322 57.7171 24.7407 57.6682 24.8577 57.6324C24.9769 57.5966 25.1046 57.5788 25.2406 57.5788C25.4171 57.5788 25.565 57.6169 25.6843 57.6933C25.8036 57.7672 25.9002 57.8651 25.9742 57.9867C26.1245 57.846 26.2951 57.7326 26.486 57.6468C26.6768 57.5609 26.8725 57.5179 27.0729 57.5179C27.2184 57.5179 27.3472 57.5442 27.4594 57.5966C27.5739 57.6468 27.6729 57.7159 27.7564 57.8042C27.8423 57.8901 27.9139 57.9903 27.9711 58.1048C28.0284 58.2193 28.0737 58.3398 28.1071 58.4663C28.1429 58.5927 28.168 58.7216 28.1823 58.8528C28.199 58.9816 28.2073 59.1057 28.2073 59.225C28.2073 59.3586 28.1978 59.5136 28.1787 59.6902C28.162 59.8644 28.1369 60.0421 28.1035 60.2234C28.0701 60.4047 28.0296 60.5789 27.9819 60.7459C27.9365 60.9105 27.8852 61.0489 27.828 61.161L26.851 61.0716C26.9417 60.8974 27.0228 60.7089 27.0943 60.5061C27.1564 60.332 27.2124 60.1328 27.2625 59.9085C27.3126 59.6818 27.3377 59.4421 27.3377 59.1892C27.3377 59.0317 27.3282 58.8838 27.3091 58.7454C27.29 58.607 27.2542 58.4877 27.2017 58.3875C27.1516 58.285 27.0812 58.2038 26.9906 58.1442C26.9023 58.0845 26.7878 58.0547 26.647 58.0547C26.5468 58.0547 26.4514 58.0762 26.3607 58.1191C26.2724 58.1597 26.1865 58.2134 26.103 58.2802C26.1412 58.3947 26.1675 58.514 26.1818 58.6381C26.1985 58.7597 26.2068 58.8802 26.2068 58.9995C26.2068 59.1212 26.2009 59.2703 26.1889 59.4468C26.177 59.6234 26.1603 59.8047 26.1388 59.9908C26.1197 60.1745 26.0971 60.3499 26.0708 60.5169C26.047 60.6839 26.0219 60.8175 25.9957 60.9177L25.0187 60.8461C25.0831 60.672 25.1404 60.4823 25.1905 60.2771C25.2334 60.1006 25.2728 59.8954 25.3086 59.6616C25.3467 59.4278 25.3658 59.1772 25.3658 58.91C25.3658 58.8265 25.3551 58.7371 25.3336 58.6416C25.3145 58.5438 25.2811 58.4543 25.2334 58.3732C25.1881 58.2897 25.1272 58.2205 25.0509 58.1657C24.9769 58.1108 24.8863 58.0834 24.7789 58.0834C24.7097 58.0834 24.6429 58.1036 24.5785 58.1442C24.5141 58.1824 24.4521 58.2337 24.3924 58.2981C24.3328 58.3625 24.2755 58.4376 24.2206 58.5235C24.1682 58.607 24.1192 58.6953 24.0739 58.7884L24.1634 60.9785L23.2079 61.0716L23.394 57.6646L24.0381 57.7147L24.0596 58.2516ZM33.0775 59.3287C33.0775 59.6174 33.0203 59.8739 32.9057 60.0982C32.7936 60.32 32.6433 60.5085 32.4548 60.6636C32.2687 60.8163 32.0528 60.932 31.8071 61.0107C31.5613 61.0919 31.3061 61.1324 31.0412 61.1324C30.7788 61.1324 30.5366 61.0871 30.3148 60.9964C30.0953 60.9058 29.9056 60.7805 29.7457 60.6207C29.5859 60.4584 29.4606 60.2676 29.37 60.0481C29.2817 59.8262 29.2376 59.584 29.2376 59.3216C29.2376 59.0639 29.2901 58.823 29.395 58.5987C29.5024 58.3744 29.6443 58.1788 29.8209 58.0118C29.9998 57.8424 30.205 57.71 30.4364 57.6145C30.6679 57.5167 30.91 57.4678 31.1629 57.4678C31.4373 57.4678 31.6914 57.5131 31.9252 57.6038C32.159 57.6945 32.3606 57.8221 32.53 57.9867C32.7018 58.1513 32.8354 58.3482 32.9308 58.5772C33.0286 58.8039 33.0775 59.0544 33.0775 59.3287ZM32.1757 59.293C32.1757 59.1856 32.1685 59.0747 32.1542 58.9601C32.1399 58.8432 32.116 58.7299 32.0826 58.6202C32.0516 58.508 32.0099 58.4031 31.9574 58.3052C31.9073 58.205 31.8441 58.1179 31.7677 58.044C31.6914 57.9676 31.6019 57.908 31.4993 57.8651C31.3967 57.8197 31.2798 57.7971 31.1486 57.7971C30.9482 57.7971 30.7824 57.846 30.6512 57.9438C30.5199 58.0392 30.4162 58.1621 30.3398 58.3124C30.2658 58.4603 30.2134 58.6237 30.1823 58.8027C30.1537 58.9816 30.1394 59.1522 30.1394 59.3144C30.1394 59.4218 30.1454 59.5339 30.1573 59.6508C30.1716 59.7653 30.1943 59.8787 30.2253 59.9908C30.2563 60.1029 30.2969 60.2103 30.347 60.3129C30.3971 60.4131 30.4591 60.5026 30.5331 60.5813C30.6094 60.6576 30.6977 60.7185 30.7979 60.7638C30.9005 60.8091 31.0174 60.8318 31.1486 60.8318C31.2822 60.8318 31.4003 60.8091 31.5029 60.7638C31.6055 60.7161 31.6937 60.6541 31.7677 60.5777C31.8441 60.499 31.9085 60.4083 31.961 60.3057C32.0134 60.2008 32.0552 60.0922 32.0862 59.9801C32.1172 59.8655 32.1399 59.7498 32.1542 59.6329C32.1685 59.5136 32.1757 59.4003 32.1757 59.293ZM35.1778 57.5108L35.1277 58.4484C35.1897 58.3339 35.2625 58.2217 35.346 58.112C35.4295 57.9998 35.5202 57.8961 35.618 57.8006C35.7182 57.7028 35.8231 57.6145 35.9329 57.5358C36.045 57.4547 36.1595 57.3879 36.2765 57.3354V58.5307C36.2264 58.4758 36.1691 58.4365 36.1047 58.4126C36.0403 58.3887 35.9711 58.3768 35.8971 58.3768C35.7874 58.3768 35.6895 58.3947 35.6037 58.4305C35.5178 58.4663 35.4426 58.5152 35.3782 58.5772C35.3138 58.6369 35.2589 58.7084 35.2136 58.7919C35.1682 58.8731 35.1301 58.9589 35.0991 59.0496L34.9953 60.9785L34.3654 61.0215L34.1579 57.5716L35.1778 57.5108ZM38.4483 56.7771C38.4483 56.863 38.4316 56.9441 38.3982 57.0205C38.3672 57.0968 38.323 57.1636 38.2658 57.2209C38.2085 57.2781 38.1417 57.3235 38.0654 57.3569C37.989 57.3903 37.9067 57.407 37.8184 57.407C37.7302 57.407 37.6467 57.3903 37.5679 57.3569C37.4916 57.3235 37.4248 57.2781 37.3675 57.2209C37.3103 57.1636 37.2649 57.0968 37.2315 57.0205C37.1981 56.9441 37.1814 56.863 37.1814 56.7771C37.1814 56.6888 37.1981 56.6065 37.2315 56.5302C37.2649 56.4515 37.3103 56.3835 37.3675 56.3262C37.4248 56.2689 37.4916 56.2236 37.5679 56.1902C37.6467 56.1568 37.7302 56.1401 37.8184 56.1401C37.9067 56.1401 37.989 56.1568 38.0654 56.1902C38.1417 56.2236 38.2085 56.2689 38.2658 56.3262C38.323 56.3835 38.3672 56.4515 38.3982 56.5302C38.4316 56.6065 38.4483 56.6888 38.4483 56.7771ZM38.3266 57.7684L38.0546 61.2111L37.3639 61.1396L37.321 57.7147L38.3266 57.7684ZM41.3323 59.9944C41.1438 59.9944 40.9565 59.9705 40.7704 59.9228C40.5867 59.8727 40.4197 59.794 40.2694 59.6866C40.2718 59.7797 40.2778 59.8751 40.2873 59.9729C40.2969 60.0707 40.3124 60.1662 40.3338 60.2592C40.3577 60.3499 40.3875 60.4358 40.4233 60.5169C40.4615 60.598 40.5092 60.6696 40.5665 60.7316C40.6261 60.7912 40.6965 60.839 40.7776 60.8747C40.8611 60.9105 40.9601 60.9284 41.0746 60.9284C41.182 60.9284 41.2822 60.9093 41.3753 60.8712C41.4683 60.8306 41.5494 60.7769 41.6186 60.7101C41.6902 60.6433 41.7486 60.5646 41.794 60.4739C41.8393 60.3833 41.8703 60.2855 41.887 60.1805L42.7674 60.3773C42.6982 60.5252 42.6004 60.6505 42.4739 60.7531C42.3499 60.8557 42.2115 60.938 42.0588 61C41.9061 61.0644 41.7462 61.1109 41.5792 61.1396C41.4146 61.1682 41.256 61.1825 41.1033 61.1825C40.8289 61.1825 40.5844 61.142 40.3696 61.0608C40.1549 60.9797 39.9736 60.8628 39.8257 60.7101C39.6801 60.5574 39.568 60.3725 39.4893 60.1554C39.4129 59.9359 39.3748 59.6902 39.3748 59.4182C39.3748 59.1534 39.4201 58.9041 39.5107 58.6703C39.6014 58.4341 39.7279 58.2289 39.8901 58.0547C40.0523 57.8806 40.2468 57.7434 40.4734 57.6432C40.7025 57.5406 40.9542 57.4893 41.2285 57.4893C41.4289 57.4893 41.6281 57.5143 41.8262 57.5644C42.0242 57.6122 42.2019 57.6885 42.3594 57.7935C42.5169 57.8961 42.6433 58.0285 42.7387 58.1907C42.8366 58.3529 42.8855 58.5486 42.8855 58.7776C42.8855 59.0019 42.8401 59.1916 42.7495 59.3466C42.6612 59.4993 42.5443 59.6246 42.3988 59.7224C42.2532 59.8178 42.0874 59.887 41.9013 59.93C41.7152 59.9729 41.5256 59.9944 41.3323 59.9944ZM41.1784 57.7541C41.0687 57.7541 40.9709 57.7768 40.885 57.8221C40.8015 57.8651 40.7263 57.9247 40.6595 58.001C40.5951 58.0774 40.5402 58.1645 40.4949 58.2623C40.4496 58.3601 40.4114 58.4627 40.3804 58.5701C40.3494 58.6774 40.3255 58.786 40.3088 58.8957C40.2921 59.0055 40.2814 59.1081 40.2766 59.2035C40.3672 59.3586 40.4877 59.4862 40.638 59.5864C40.7883 59.6842 40.9625 59.7331 41.1605 59.7331C41.287 59.7331 41.4003 59.7045 41.5005 59.6472C41.6007 59.5876 41.6854 59.5113 41.7546 59.4182C41.8238 59.3252 41.8763 59.2214 41.9121 59.1069C41.9502 58.9923 41.9693 58.8778 41.9693 58.7633C41.9693 58.6488 41.9526 58.5319 41.9192 58.4126C41.8858 58.2909 41.8357 58.1824 41.7689 58.0869C41.7045 57.9891 41.6222 57.9092 41.522 57.8472C41.4242 57.7851 41.3096 57.7541 41.1784 57.7541ZM45.6299 61.1109C45.4247 61.1109 45.2195 61.0847 45.0144 61.0322C44.8116 60.9797 44.6255 60.8998 44.4561 60.7924C44.2867 60.6827 44.1435 60.5455 44.0266 60.3809C43.9121 60.2139 43.8417 60.017 43.8155 59.7904L44.8175 59.819C44.8128 59.8333 44.8104 59.8488 44.8104 59.8655C44.8104 59.8799 44.8104 59.8942 44.8104 59.9085C44.8104 60.0493 44.8307 60.1757 44.8712 60.2878C44.9142 60.4 44.975 60.4954 45.0537 60.5741C45.1325 60.6505 45.2267 60.7089 45.3365 60.7495C45.4462 60.79 45.5691 60.8103 45.7051 60.8103C45.7862 60.8103 45.8649 60.802 45.9413 60.7853C46.02 60.7686 46.0892 60.7411 46.1488 60.703C46.2108 60.6624 46.261 60.6099 46.2991 60.5455C46.3373 60.4811 46.3564 60.4 46.3564 60.3022C46.3564 60.1924 46.3218 60.0982 46.2526 60.0194C46.1834 59.9407 46.0987 59.8751 45.9985 59.8226C45.9007 59.7677 45.7969 59.7236 45.6872 59.6902C45.5798 59.6544 45.4856 59.627 45.4044 59.6079C45.3209 59.5864 45.2243 59.5626 45.1146 59.5363C45.0072 59.5077 44.8963 59.4755 44.7818 59.4397C44.6672 59.4015 44.5551 59.3574 44.4454 59.3073C44.3356 59.2572 44.2378 59.1975 44.1519 59.1283C44.066 59.0591 43.9968 58.9804 43.9443 58.8921C43.8918 58.8015 43.8656 58.6977 43.8656 58.5808C43.8656 58.4496 43.8907 58.3303 43.9408 58.2229C43.9909 58.1156 44.0577 58.0201 44.1412 57.9366C44.2271 57.8531 44.3249 57.7815 44.4346 57.7219C44.5467 57.6599 44.6625 57.6098 44.7818 57.5716C44.901 57.531 45.0215 57.5012 45.1432 57.4821C45.2649 57.463 45.3794 57.4535 45.4868 57.4535C45.6681 57.4535 45.8518 57.475 46.0379 57.5179C46.2264 57.5585 46.3969 57.6253 46.5496 57.7183C46.7047 57.8114 46.8335 57.9319 46.9361 58.0798C47.0411 58.2277 47.1019 58.4066 47.1186 58.6166L46.1452 58.6917V58.6559C46.1476 58.5152 46.1309 58.3875 46.0951 58.273C46.0617 58.1585 46.0092 58.0607 45.9377 57.9796C45.8685 57.8985 45.7802 57.8364 45.6728 57.7935C45.5679 57.7481 45.4438 57.7255 45.3007 57.7255C45.2362 57.7255 45.1659 57.735 45.0895 57.7541C45.0132 57.7732 44.9416 57.803 44.8748 57.8436C44.8104 57.8818 44.7555 57.9307 44.7102 57.9903C44.6648 58.05 44.6422 58.1203 44.6422 58.2015C44.6422 58.3255 44.6804 58.4257 44.7567 58.5021C44.8354 58.576 44.9309 58.6357 45.043 58.681C45.1551 58.7239 45.272 58.7573 45.3937 58.7812C45.5154 58.8027 45.6216 58.8241 45.7122 58.8456C45.81 58.8671 45.9138 58.8945 46.0236 58.9279C46.1357 58.9589 46.2454 58.9983 46.3528 59.046C46.4626 59.0914 46.5663 59.1462 46.6642 59.2106C46.7644 59.2727 46.8526 59.3454 46.929 59.4289C47.0053 59.5101 47.0662 59.6031 47.1115 59.7081C47.1568 59.8107 47.1795 59.9264 47.1795 60.0552C47.1795 60.2485 47.1294 60.4131 47.0292 60.5491C46.929 60.6827 46.8013 60.7912 46.6463 60.8747C46.4936 60.9582 46.3266 61.0179 46.1452 61.0537C45.9639 61.0919 45.7921 61.1109 45.6299 61.1109Z" fill="#227DA4"/>
</svg>
