<svg width="25" height="24" viewBox="0 0 25 24" fill="none" xmlns="http://www.w3.org/2000/svg">
<path d="M6.60938 12C6.60938 11.7653 6.7026 11.5402 6.86854 11.3743C7.03447 11.2084 7.25953 11.1152 7.4942 11.1152H11.6152V6.9942C11.6152 6.75953 11.7084 6.53447 11.8743 6.36854C12.0402 6.2026 12.2653 6.10938 12.5 6.10938C12.7347 6.10938 12.9597 6.2026 13.1256 6.36854C13.2916 6.53447 13.3848 6.75953 13.3848 6.9942V11.1152H17.5058C17.7404 11.1152 17.9655 11.2084 18.1314 11.3743C18.2974 11.5402 18.3906 11.7653 18.3906 12C18.3906 12.2347 18.2974 12.4597 18.1314 12.6256C17.9655 12.7916 17.7404 12.8848 17.5058 12.8848H13.3848V17.0058C13.3848 17.2404 13.2916 17.4655 13.1256 17.6314C12.9597 17.7974 12.7347 17.8906 12.5 17.8906C12.2653 17.8906 12.0402 17.7974 11.8743 17.6314C11.7084 17.4655 11.6152 17.2404 11.6152 17.0058V12.8848H7.4942C7.25953 12.8848 7.03447 12.7916 6.86854 12.6256C6.7026 12.4597 6.60938 12.2347 6.60938 12Z" fill="#227DA4"/>
<path fill-rule="evenodd" clip-rule="evenodd" d="M6.97515 2.2887C10.6471 1.88163 14.3529 1.88163 18.0249 2.2887C20.1803 2.52938 21.9205 4.22707 22.173 6.39431C22.6095 10.1189 22.6095 13.8812 22.173 17.6057C21.9193 19.7729 20.1792 21.4694 18.0249 21.7113C14.3529 22.1184 10.6471 22.1184 6.97515 21.7113C4.8197 21.4694 3.07954 19.7729 2.82706 17.6057C2.39147 13.8813 2.39147 10.1187 2.82706 6.39431C3.07954 4.22707 4.82088 2.52938 6.97515 2.2887ZM17.8291 4.04656C14.2872 3.65398 10.7128 3.65398 7.17099 4.04656C6.51532 4.1193 5.90332 4.41096 5.43387 4.87443C4.96441 5.33789 4.66491 5.94609 4.58375 6.60077C4.16416 10.1884 4.16416 13.8128 4.58375 17.4004C4.66515 18.0549 4.96476 18.6628 5.4342 19.126C5.90364 19.5893 6.5155 19.8808 7.17099 19.9534C10.6832 20.3451 14.3169 20.3451 17.8291 19.9534C18.4843 19.8805 19.0959 19.5889 19.5651 19.1257C20.0343 18.6625 20.3338 18.0547 20.4151 17.4004C20.8347 13.8128 20.8347 10.1884 20.4151 6.60077C20.3335 5.9467 20.034 5.33918 19.5648 4.87621C19.0956 4.41323 18.4842 4.1218 17.8291 4.04892" fill="#227DA4"/>
</svg>
